<?xml version="1.0" encoding="UTF-8" standalone="no"?>
<!-- Created with Inkscape (http://www.inkscape.org/) -->

<svg
   width="119.06012mm"
   height="128.52126mm"
   viewBox="0 0 119.06012 128.52126"
   version="1.1"
   id="svg5"
   xmlns="http://www.w3.org/2000/svg"
   xmlns:svg="http://www.w3.org/2000/svg">
  <defs
     id="defs2" />
  <g
     id="layer1"
     transform="translate(-52.845229,-78.930757)">
    <path
       style="fill:#ffffff;fill-opacity:1;stroke-width:0.264583"
       d="m 112.49675,206.82445 c -0.89285,-0.89284 -0.90511,-2.57693 -0.0247,-3.39809 0.34358,-0.32048 0.70503,-0.83874 0.80323,-1.1517 0.16465,-0.52471 -0.13643,-0.69314 -3.86583,-2.16264 -2.22441,-0.87649 -11.307197,-4.47391 -20.183968,-7.99426 -8.87677,-3.52035 -16.347941,-6.46034 -16.602603,-6.53332 -0.68788,-0.19712 -0.6373,1.61618 0.06615,2.37123 1.104654,1.18571 0.265922,3.39032 -1.47627,3.88038 -2.42893,0.68324 -4.00419,-2.3313 -2.0886,-3.99689 0.35995,-0.31297 0.65445,-0.76187 0.65445,-0.99757 0,-0.23569 0.12567,-0.5542 0.27926,-0.70779 0.24625,-0.24626 0.7558,-5.13398 0.77281,-7.41305 0.009,-1.25143 1.00584,-2.23788 3.018167,-2.98771 0.962829,-0.35877 1.750599,-0.73649 1.750599,-0.83938 0,-0.10289 -0.424695,-0.32723 -0.943768,-0.49854 -0.519073,-0.17131 -0.889685,-0.36555 -0.823582,-0.43166 0.0661,-0.0661 1.949315,0.55457 4.184914,1.37927 2.2356,0.8247 4.898165,1.7792 5.916811,2.12112 1.018646,0.34192 4.709583,1.68415 8.202083,2.98274 5.482338,2.03846 6.374574,2.30191 6.52984,1.92804 0.147846,-0.35599 0.183149,-0.33718 0.198437,0.10574 0.01479,0.4283 0.411938,0.67052 1.93683,1.18123 1.05502,0.35335 2.03729,0.71548 2.18281,0.80473 0.14552,0.0892 0.8599,0.37735 1.5875,0.64023 0.7276,0.26287 3.31551,1.23588 5.75092,2.16223 2.4354,0.92634 4.49354,1.68426 4.57364,1.68426 0.0801,0 0.11156,-1.16085 0.0699,-2.57968 l -0.0757,-2.57969 -1.91823,-1.00511 -1.91823,-1.0051 -0.0364,2.5926 -0.0364,2.59261 -0.22137,-2.49308 c -0.12176,-1.37119 -0.2543,-2.59183 -0.29453,-2.71253 -0.0402,-0.1207 -0.81721,-0.57133 -1.72661,-1.00141 l -1.65346,-0.78197 -0.0396,2.30387 c -0.0397,2.30507 -0.0893,2.17965 -0.3812,-0.96319 l -0.15599,-1.67956 -1.9752,-0.90013 c -1.08636,-0.49507 -2.03817,-0.90013 -2.11513,-0.90013 -0.077,0 -0.0801,1.33946 -0.007,2.97657 l 0.13299,2.97656 -0.30913,-3.1394 -0.30913,-3.13939 -1.77978,-0.89604 -1.779772,-0.89604 0.109286,2.9771 0.109281,2.9771 -0.313886,-3.04271 -0.313888,-3.0427 -1.322917,-0.72143 c -1.544195,-0.84209 -1.408601,-0.99072 0.1694,-0.18568 l 1.074362,0.54809 -0.192826,-4.25495 c -0.289698,-6.39258 0.135792,-5.6527 -4.465862,-7.76558 -2.157913,-0.99082 -3.988057,-1.73692 -4.066982,-1.65799 -0.138197,0.1382 0.342604,6.95454 0.627838,8.90089 0.127579,0.87058 0.289983,1.0218 1.970471,1.83477 1.007287,0.48729 1.877806,0.83425 1.934485,0.77102 0.05668,-0.0632 -0.0062,-1.60113 -0.139774,-3.41754 -0.133554,-1.81641 -0.207566,-3.78094 -0.16447,-4.36562 0.0431,-0.58469 0.244869,1.02053 0.448384,3.56714 0.213074,2.66625 0.493638,4.71266 0.661458,4.8246 0.211476,0.14105 0.210809,0.19549 -0.0024,0.19843 -0.200512,0.003 -0.268894,0.82355 -0.215263,2.58374 l 0.0786,2.57969 -0.263808,-2.64583 c -0.145094,-1.45521 -0.345884,-2.72767 -0.446196,-2.82768 -0.100314,-0.10002 -0.993798,-0.54499 -1.985523,-0.98884 l -1.803135,-0.80699 0.129598,3.50238 0.129601,3.50238 -0.31084,-3.55572 -0.310838,-3.55572 -1.852083,-0.85809 c -1.018646,-0.47195 -1.978809,-0.86617 -2.133693,-0.87605 -0.187343,-0.012 -0.261279,1.02269 -0.220869,3.09089 0.05112,2.61631 0.02728,2.83638 -0.150484,1.38906 -0.116176,-0.94588 -0.225145,-2.40938 -0.242155,-3.25221 l -0.03097,-1.53242 -1.744456,-0.78268 c -0.959451,-0.43048 -1.792888,-0.78269 -1.852084,-0.78269 -0.0592,0 -0.124531,0.74414 -0.14519,1.65365 l -0.03757,1.65364 -0.18197,-1.78498 c -0.100084,-0.98175 -0.232008,-1.82557 -0.293166,-1.87516 -0.254635,-0.20648 -3.767828,-1.76717 -3.831868,-1.70226 -0.03838,0.0389 0.04594,1.12187 0.187375,2.40658 0.141433,1.28471 0.22038,2.65393 0.175435,3.04271 -0.04494,0.38877 -0.244271,-0.76404 -0.442947,-2.56181 l -0.36123,-3.26867 -1.963857,-0.93263 c -1.080121,-0.51295 -2.033825,-0.86266 -2.119341,-0.77715 -0.08552,0.0855 0.05042,1.73798 0.30208,3.67214 0.251661,1.93416 0.414062,3.81431 0.360892,4.17811 -0.05317,0.3638 -0.392978,-1.36261 -0.755121,-3.83646 l -0.658443,-4.49792 -1.32292,-0.72142 c -1.47019,-0.80173 -1.48708,-0.9412 -0.0408,-0.33691 1.25917,0.52612 1.29798,0.51468 1.12219,-0.33073 -0.0832,-0.40018 -0.32933,-2.33495 -0.54694,-4.29948 -0.62354,-5.62911 -0.40154,-5.10224 -2.55584,-6.0655 -1.03259,-0.46171 -1.92707,-0.78985 -1.98772,-0.7292 -0.0606,0.0607 0.01,0.63201 0.15702,1.26968 0.25582,1.10963 0.35176,2.50544 0.13425,1.95315 -0.20796,-0.52804 -3.24492,-17.50132 -3.38487,-18.91771 l -0.14379,-1.45521 0.34674,1.66238 c 0.19071,0.9143 0.3976,1.71323 0.45975,1.77538 0.0622,0.0622 2.07237,-0.64198 4.46714,-1.56475 4.581533,-1.7654 15.523368,-5.75436 18.602149,-6.78161 l 1.812605,-0.60479 -0.150183,-0.94747 c -0.0826,-0.52111 -0.229928,-1.631 -0.327395,-2.46643 -0.09747,-0.83542 -0.330925,-1.64652 -0.518792,-1.80244 -0.476729,-0.39565 -6.865152,-2.32988 -8.348488,-2.52768 -1.558038,-0.20777 -3.330736,0.17751 -6.958075,1.51226 -3.528741,1.29847 -8.463721,2.5041 -11.794451,2.88141 -4.16634,0.47197 -5.91067,1.06765 -5.42544,1.85276 0.10736,0.17372 0.74007,0.66139 1.40602,1.08373 0.66595,0.42233 1.09176,0.76788 0.94624,0.76788 -0.36445,0 -2.64134,-1.46313 -2.88143,-1.85161 -0.35028,-0.56676 0.59272,-1.13401 2.83003,-1.70238 1.86471,-0.47371 2.20954,-0.64722 2.28131,-1.14787 0.10162,-0.70892 0.2855,-0.70178 -2.28198,-0.0886 -3.1248,0.74634 -3.99519,1.33303 -4.01187,2.70421 -0.0141,1.15713 0.84996,1.88417 4.20177,3.5356 2.98125,1.46887 3.22781,1.64816 3.45636,2.51354 0.13536,0.51253 1.80548,9.50436 3.71137,19.98186 2.15148,11.82758 3.60567,19.19185 3.8356,19.42414 0.28933,0.2923 0.45332,0.30529 0.7496,0.0594 0.29918,-0.2483 0.41196,-0.22953 0.53414,0.0889 0.11561,0.30127 -0.0275,0.4026 -0.56441,0.39958 -0.39561,-0.002 -0.86904,-0.0991 -1.05206,-0.21531 -0.29323,-0.18616 -4.28,-21.27857 -6.67543,-35.31706 -0.41743,-2.44633 -0.91627,-4.63743 -1.10855,-4.86911 -0.19228,-0.23168 -1.64675,-1.05203 -3.23216,-1.82301 -3.37144,-1.63951 -4.39381,-2.49283 -4.39381,-3.6673 0,-1.67279 1.02454,-2.4352 4.29948,-3.19947 1.12779,-0.26319 2.05052,-0.57276 2.05052,-0.68794 0,-0.48149 1.81262,-1.05373 7.41824,-2.34194 3.26115,-0.74944 6.022131,-1.41994 6.13551,-1.49001 0.113376,-0.0701 0.753578,-0.0453 1.422667,0.055 0.669089,0.10034 1.081426,0.26593 0.916302,0.36798 -0.165121,0.10205 -0.222845,0.38719 -0.128272,0.63365 0.13966,0.36394 0.352517,0.40966 1.13344,0.24343 0.52882,-0.11257 1.616334,-0.18011 2.416699,-0.1501 1.526855,0.0573 8.144459,1.92241 9.143671,2.57712 0.602144,0.39454 0.765297,0.97358 1.066329,3.78445 0.147376,1.3761 0.260181,1.65365 0.672092,1.65365 0.574035,0 0.594961,-0.29451 0.223999,-3.15261 -0.14006,-1.07909 -0.440266,-2.24526 -0.667125,-2.5915 -0.499023,-0.7616 -0.837012,-0.90494 -5.544175,-2.35127 -4.427553,-1.36042 -4.158128,-1.55006 0.35618,-0.25071 4.047347,1.16495 4.936204,1.54331 5.414295,2.30472 0.423185,0.67396 0.855359,2.47001 1.123993,4.67113 0.118612,0.97188 0.306728,1.44986 0.607427,1.54341 3.395157,1.05624 14.884919,6.30836 31.948399,14.60404 4.23517,2.05899 7.80704,3.74362 7.9375,3.74362 0.1337,0 0.24203,-3.08845 0.24826,-7.0776 0.006,-3.98358 0.13896,-7.77159 0.30363,-8.6651 0.16092,-0.87313 0.26004,-1.62232 0.22026,-1.66487 -0.0398,-0.0426 -1.69446,0.77138 -3.67707,1.80874 -1.98261,1.03737 -3.60475,1.82525 -3.60475,1.75085 0,-0.0744 1.51805,-0.99621 3.37344,-2.04848 4.24749,-2.40892 4.3857,-2.52611 4.18006,-3.54433 -0.0888,-0.43991 -0.3363,-2.03992 -0.5499,-3.55559 -0.21361,-1.51566 -0.43415,-2.80153 -0.49011,-2.85748 -0.0559,-0.0559 -0.83841,0.14644 -1.7388,0.44976 -0.9004,0.30332 -2.56956,0.68336 -3.70927,0.84453 -2.07005,0.29275 -2.07355,0.29461 -3.40777,1.81036 -0.73458,0.83453 -1.84751,1.91238 -2.47319,2.39523 -1.23788,0.95533 -1.28533,1.02563 1.46841,-2.17563 l 1.51381,-1.75982 -1.39845,-0.18975 c -1.78532,-0.24226 -3.72655,-0.96571 -5.34451,-1.99179 -0.70092,-0.44451 -1.30698,-0.77234 -1.34678,-0.72851 -0.0398,0.0438 -0.5116,0.8536 -1.04842,1.79948 -1.10541,1.94778 -1.11141,1.87489 -0.0477,-0.58013 l 0.75473,-1.74198 -1.18353,-1.45306 c -3.5903,-4.40792 -4.98394,-12.34706 -3.47858,-19.816388 0.10724,-0.53209 0.0246,-0.73556 -0.33699,-0.8292 -0.44729,-0.11586 -0.44607,-0.12614 0.0185,-0.15479 0.27366,-0.0169 1.09086,-0.45693 1.81598,-0.97788 1.59427,-1.145366 1.83115,-1.108807 4.37052,0.67452 2.07872,1.45983 4.0094,3.61027 5.35877,5.968698 l 0.87201,1.52413 0.60823,-1.16269 c 0.75947,-1.45181 0.80971,-1.23451 0.0905,0.39141 l -0.54165,1.22449 0.7322,1.87462 0.7322,1.87461 0.78173,-1.01495 c 1.83776,-2.38602 5.58828,-5.7956 7.30384,-6.63989 0.94588,-0.465498 1.55958,-0.848838 1.36376,-0.851858 -0.19582,-0.003 -0.68104,-0.23691 -1.07826,-0.51976 l -0.72224,-0.51428 -1.96444,1.30793 -1.96445,1.307928 -0.46368,-1.521258 c -1.6676,-5.471147 -2.04966,-10.659019 -0.98826,-13.419306 0.80444,-2.092044 2.815,-4.110336 5.21595,-5.236012 1.49276,-0.699876 2.10172,-0.838384 3.64432,-0.8289 4.3566,0.02678 6.82331,2.526896 8.0642,8.173379 0.63747,2.900717 0.66554,4.292663 0.11433,5.670253 -0.41039,1.025676 -0.40283,1.083086 0.31698,2.405606 0.40557,0.74517 1.04125,1.52013 1.41261,1.72213 0.46678,0.2539 0.53954,0.37055 0.23572,0.37788 -0.52642,0.0127 -1.58326,-1.1858 -2.05948,-2.33551 -0.34053,-0.82211 -0.88862,-1.07653 -1.20753,-0.56054 -0.17727,0.28683 -2.26121,1.41333 -2.35209,1.27145 -0.0298,-0.0465 -0.26006,-0.76152 -0.51166,-1.58887 -0.55252,-1.816833 -1.92668,-3.884772 -2.99719,-4.510392 -1.02028,-0.59626 -6.46338,-1.117677 -6.76221,-0.64778 -0.10928,0.171842 -0.20052,0.771662 -0.20275,1.332935 -0.003,0.794892 0.0828,0.987155 0.38895,0.869685 0.31292,-0.120076 0.33534,-0.05845 0.11003,0.302422 -0.35843,0.574069 0.44231,2.70512 1.76545,4.69852 1.55985,2.35002 3.36443,2.768038 5.54919,1.28542 0.77963,-0.52907 1.03908,-0.5983 1.21318,-0.32373 0.12181,0.1921 0.22146,0.46833 0.22146,0.61385 0,0.14552 -0.10226,0.1032 -0.22725,-0.094 -0.1863,-0.29402 -0.36046,-0.27135 -0.96665,0.12584 l -0.7394,0.48448 0.90161,0.18439 c 0.58594,0.11984 0.9707,0.0758 1.09894,-0.12584 0.13212,-0.2077 0.19868,-0.16436 0.20139,0.13115 0.002,0.24276 0.0796,0.659478 0.17194,0.926038 0.15377,0.44392 0.13709,0.44798 -0.19844,0.0484 -0.84698,-1.008778 -1.4593,-0.860978 -2.5791,0.62255 -1.31216,1.73837 -1.62368,2.53985 -1.62368,4.1774 0,1.07467 0.11478,1.37677 0.69714,1.83485 0.38342,0.30161 0.94897,0.56219 1.25677,0.57907 0.41992,0.023 0.44847,0.06 0.11437,0.14827 -0.79249,0.20927 -2.0041,-0.63799 -2.33165,-1.63049 -0.507,-1.53622 0.22022,-3.66231 1.91157,-5.58865 l 0.85121,-0.969468 -1.60289,0.11594 c -1.02112,0.0739 -2.14597,0.381638 -3.09915,0.847988 -1.90816,0.93358 -5.31475,4.13198 -6.95004,6.52531 -1.43138,2.09489 -1.60275,2.08451 -2.32944,-0.14105 -0.23758,-0.72761 -0.52715,-1.47276 -0.6435,-1.65591 -0.13612,-0.21426 -0.80951,0.96491 -1.88872,3.3073 -0.92245,2.00215 -2.38092,5.05261 -3.24105,6.77881 -0.86013,1.72619 -1.50943,3.28041 -1.44289,3.45382 0.18034,0.46995 3.21964,2.01898 4.77282,2.43255 2.74781,0.73165 3.22975,0.59406 5.43066,-1.55043 1.92158,-1.87231 1.85545,-1.7081 -0.47817,1.18744 l -0.63857,0.79235 1.43232,-0.19281 c 1.28282,-0.17267 5.53337,-1.36654 5.53337,-1.55417 0,-0.0412 -0.35718,-1.34695 -0.79375,-2.90169 -1.29476,-4.61107 -1.02793,-6.43209 1.7597,-12.00934 1.72203,-3.44528 1.65753,-3.10194 -0.18195,0.96851 -0.75191,1.66385 -1.54271,3.88625 -1.75732,4.93866 -0.38836,1.90437 -0.3858,1.93149 0.5392,5.70606 0.51118,2.08593 1.06613,5.04079 1.23321,6.56637 0.16708,1.52558 0.47075,3.17339 0.67483,3.6618 l 0.37104,0.88803 0.86346,-0.51976 c 2.70259,-1.62682 12.98021,-6.93713 12.50512,-6.46123 -0.21977,0.22015 -6.32438,3.73204 -11.62198,6.68595 l -1.30324,0.72668 1.83241,0.59034 c 2.31449,0.74567 7.75583,1.0129 10.55034,0.51815 4.0425,-0.71571 10.75755,-3.54055 12.45757,-5.24057 0.80707,-0.80708 1.07449,-2.18709 0.67937,-3.5059 -0.26676,-0.89035 -0.54038,-1.14532 -2.11984,-1.9753 -3.03668,-1.59573 -5.74878,-4.2026 -7.05596,-6.78219 -0.93551,-1.84616 -0.78255,-1.88454 0.30075,-0.0755 2.6206,4.37631 8.56596,8.41019 11.76336,7.98133 3.98855,-0.53498 8.26233,-5.54419 9.41882,-11.0396 0.60972,-2.89728 0.36638,-8.77202 -0.50796,-12.263278 -0.35895,-1.43329 -0.81845,-2.771802 -1.02112,-2.974472 -0.20267,-0.20267 -1.08002,-0.442861 -1.94968,-0.533757 l -1.58118,-0.165267 -1.23347,1.318671 c -1.34829,1.441435 -2.42881,3.364055 -3.15975,5.622275 -0.25906,0.800358 -0.47743,1.265478 -0.48525,1.033598 -0.0231,-0.6855 0.99139,-3.410708 1.75445,-4.712758 0.38933,-0.66434 1.23372,-1.770068 1.87641,-2.457166 0.7678,-0.820834 1.25404,-1.629738 1.41782,-2.358675 0.34125,-1.518812 1.16671,-2.617503 1.96657,-2.617503 0.41459,0 0.64344,0.151218 0.64344,0.425183 0,0.302688 0.13339,0.369112 0.46302,0.230558 1.04672,-0.439973 1.6484,-0.448112 1.81095,-0.0245 0.0901,0.234899 0.32975,0.42709 0.53246,0.42709 0.40669,0 0.50971,0.939873 0.12882,1.175274 -0.13186,0.08149 -0.18017,0.375982 -0.10735,0.654419 0.091,0.348059 -0.0614,0.600565 -0.48786,0.808083 -0.55517,0.270162 -0.57167,0.262538 -0.15723,-0.07266 0.64097,-0.51842 0.57901,-0.784062 -0.13229,-0.567147 -0.56089,0.171047 -0.55303,0.136597 0.13599,-0.595827 0.88802,-0.94395 0.68709,-1.266311 -0.43412,-0.696467 l -0.82635,0.419986 0.61521,-0.667209 c 0.7813,-0.847333 0.37676,-1.132817 -0.86815,-0.61266 -0.8939,0.373495 -0.93769,0.366805 -0.93769,-0.143276 0,-0.80346 -0.80028,-0.519303 -1.51204,0.536881 -0.33254,0.493455 -0.60462,1.229476 -0.60462,1.635602 0,0.678618 0.10177,0.753356 1.25677,0.922976 2.19713,0.322664 2.37013,0.460303 2.95381,2.350038 1.07536,3.48159 1.41308,6.128308 1.28436,10.065528 -0.10251,3.13566 -0.23152,4.02748 -0.84059,5.81074 -1.28293,3.75622 -3.88228,6.98071 -6.90331,8.56354 -1.06824,0.55969 -1.68379,0.69246 -3.19748,0.68966 l -1.87456,-0.003 0.0719,1.86248 c 0.046,1.19305 0.31009,2.49343 0.73466,3.61794 1.49058,3.94801 2.46308,11.84759 2.16166,17.55911 -0.23023,4.36265 -0.63156,7.65077 -2.27669,18.65313 -2.64524,17.69086 -4.52158,27.92565 -5.25385,28.65792 -0.59327,0.59327 -4.93692,0.0142 -5.1914,-0.69211 -0.0628,-0.17427 -0.5336,-4.30545 -1.04625,-9.1804 -1.10152,-10.4749 -1.23149,-11.42431 -2.39052,-17.4625 -1.00859,-5.25444 -1.51639,-9.00188 -2.22289,-16.40416 -0.53685,-5.62484 -0.70512,-4.81369 -0.27443,1.32291 0.40641,5.79077 0.97885,10.36429 1.96395,15.69108 0.48966,2.64777 1.15274,6.83819 1.47352,9.31205 l 0.58323,4.49791 -0.94691,5.64931 c -0.5208,3.10712 -1.07106,5.7989 -1.22279,5.98173 -0.15174,0.18282 -0.72181,0.31302 -1.26683,0.28932 -0.54503,-0.0237 -1.58627,-0.0682 -2.31387,-0.0988 -0.72761,-0.0306 -1.4667,-0.14709 -1.64242,-0.25878 -0.17573,-0.11168 -0.67781,-1.98509 -1.11573,-4.16313 -1.40129,-6.96942 -3.28934,-14.5139 -3.49808,-13.97798 -0.10559,0.2711 -0.37748,1.83876 -0.6042,3.4837 -0.22673,1.64494 -0.52992,3.2107 -0.67375,3.47946 -0.14384,0.26875 -2.73421,2.00877 -5.75638,3.86669 -3.02217,1.85793 -6.12835,3.77865 -6.90261,4.26828 l -1.40775,0.89024 5.00353,2.48641 c 5.33801,2.65262 6.41477,3.37175 6.93723,4.63308 0.59374,1.43341 0.10084,1.8587 -7.73279,6.67224 -1.34794,0.82827 -2.68893,1.5838 -2.97997,1.67896 -0.29104,0.0952 -0.0529,-0.11607 0.52917,-0.4694 3.49158,-2.1194 8.85437,-5.79539 9.32197,-6.38984 1.20643,-1.53372 0.22683,-2.38368 -6.51758,-5.65507 -4.15275,-2.0143 -5.2392,-2.44204 -5.68855,-2.23964 -0.47461,0.21378 0.11399,0.58569 4.04544,2.55607 3.80944,1.90924 4.53764,2.36395 4.23333,2.64339 -0.44253,0.40637 -12.55943,7.82479 -12.78065,7.82479 -0.26406,0 -30.130017,-11.88627 -31.089399,-12.37318 -1.393703,-0.70734 -2.005811,-1.72135 -2.005811,-3.32278 0,-1.15519 0.564642,-3.27447 0.807672,-3.03144 0.04124,0.0412 -0.08401,0.68793 -0.278336,1.43708 -0.446955,1.72305 -0.162311,3.10237 0.841528,4.07789 0.53421,0.51913 3.523234,1.79076 10.535385,4.48208 5.384271,2.06652 12.328841,4.75646 15.432391,5.97763 4.79042,1.88493 5.72965,2.17516 6.21771,1.9213 0.31619,-0.16446 3.177,-1.85455 6.35734,-3.75576 l 5.78244,-3.45675 -4.48986,-2.24047 -4.48986,-2.24047 -1.36796,0.84171 -1.36796,0.84171 -15.427254,-5.82407 c -8.485178,-3.20371 -15.50014,-5.82454 -15.588989,-5.82454 -0.08885,0 -0.398547,0.53578 -0.688219,1.19062 -0.289668,0.65485 -0.5862,1.19063 -0.65896,1.19063 -0.07276,0 0.111413,-0.55094 0.409273,-1.2243 0.443788,-1.00326 0.47693,-1.26521 0.18356,-1.45091 -0.609113,-0.38555 -0.84188,-0.13433 -2.056087,2.21914 -1.28636,2.49331 -1.672905,4.68995 -1.109634,6.30575 0.163108,0.46789 0.252897,0.89438 0.199528,0.94774 -0.05337,0.0534 -1.066811,-0.28256 -2.252094,-0.74652 -1.18528,-0.46395 -2.108081,-0.89053 -2.050663,-0.94794 0.05742,-0.0574 0.852725,0.19967 1.76735,0.57132 2.004975,0.81469 2.18481,0.82778 1.967526,0.14318 -0.09296,-0.29289 -0.169021,-1.20175 -0.169021,-2.01968 0,-1.3737 0.715854,-3.21622 2.61498,-6.73066 0.04599,-0.0851 -0.8305,-0.51173 -1.947764,-0.94805 l -2.031386,-0.79329 -2.672453,1.03309 c -1.46985,0.5682 -2.790497,1.14859 -2.934774,1.28975 -0.144277,0.14115 -0.335132,0.93632 -0.424122,1.76703 l -0.161801,1.51039 -0.0389,-1.23955 c -0.06715,-2.13983 0.164635,-2.4146 2.855344,-3.38483 1.324864,-0.47772 2.470674,-0.96863 2.546247,-1.09091 0.07557,-0.12228 -0.1743,-0.30055 -0.555268,-0.39617 -0.823878,-0.20678 -4.044267,0.97386 -5.07522,1.86065 -0.57963,0.49858 -0.70316,0.89039 -0.88655,2.81193 -0.35858,3.7573 -0.30664,5.46018 0.17215,5.64391 0.56958,0.21856 0.5891,0.21253 0.68656,-0.21231 0.0652,-0.2842 0.935084,-0.0345 3.657421,1.04973 1.964532,0.78245 10.95375,4.33191 19.976041,7.88769 14.261789,5.62072 20.457919,8.15785 18.873459,7.72812 -0.50807,-0.1378 -0.7495,0.34168 -0.7495,1.48848 0,0.6575 0.0673,0.74864 0.36841,0.49876 0.20262,-0.16817 0.51472,-0.65899 0.69355,-1.09073 0.32521,-0.78513 0.79012,-1.06244 0.79012,-0.4713 0,0.17252 0.24569,0.5752 0.54598,0.89484 1.03215,1.09868 0.62924,2.94172 -0.80527,3.68353 -1.11508,0.57664 -2.05279,0.49284 -2.79544,-0.24982 z m 2.46669,-0.027 c 0.4332,-0.30343 0.58804,-0.67808 0.58804,-1.42282 0,-1.41103 -0.53037,-1.78706 -1.32602,-0.94013 -0.81725,0.86992 -1.05523,0.8301 -1.05523,-0.1766 0,-0.818 -0.0106,-0.82514 -0.52917,-0.35587 -0.73111,0.66165 -0.67685,1.86074 0.12027,2.65786 0.75084,0.75084 1.37341,0.818 2.20211,0.23756 z M 71.675959,191.161 c 0.561356,-0.50801 0.64049,-1.8926 0.14677,-2.56781 -0.31037,-0.42445 -0.38442,-0.39699 -0.93397,0.34631 -0.78048,1.05565 -1.11019,1.02039 -1.11019,-0.11874 0,-1.01954 -0.35903,-1.20915 -0.78444,-0.41427 -1.0505,1.96287 1.10746,4.17931 2.68183,2.75451 z m -0.0453,-4.36515 c 0,-0.94117 -0.43411,-1.18583 -1.075,-0.60583 -0.38277,0.3464 -0.50977,0.80503 -0.50174,1.81185 l 0.0108,1.34806 0.783,-0.91605 c 0.45251,-0.5294 0.78299,-1.22078 0.78299,-1.63803 z m 46.235931,0.81643 c 0.55115,-0.34627 0.59532,-0.56559 0.59532,-2.9562 0,-1.56484 -0.10545,-2.58219 -0.26766,-2.58219 -0.14721,0 -0.85945,0.38695 -1.58275,0.85989 -1.46056,0.95502 -1.46146,0.95834 -1.15185,4.23671 l 0.16899,1.78931 0.82132,-0.48675 c 0.45173,-0.26772 1.08921,-0.65507 1.41663,-0.86077 z m 6.0922,-3.68631 3.22963,-1.98437 0.002,-2.84427 c 10e-4,-1.56435 -0.0586,-2.84427 -0.13309,-2.84427 -0.0745,0 -0.96748,0.55324 -1.98438,1.22944 l -1.84892,1.22944 -0.0485,2.144 -0.0485,2.14399 -0.14992,-2.02056 -0.14992,-2.02056 -2.05052,1.31918 -2.05052,1.31918 v 2.7669 2.76689 l 1.00133,-0.6103 c 0.55073,-0.33567 2.45467,-1.50328 4.23097,-2.59469 z m -9.16017,-5.62226 c -0.0503,-2.65583 -0.11556,-4.85438 -0.14507,-4.88566 -0.0295,-0.0313 -0.9848,-0.48121 -2.12285,-0.99984 l -2.06918,-0.94295 0.15519,1.39671 c 0.0853,0.76819 0.23283,2.95612 0.32774,4.86207 l 0.17257,3.46535 1.75421,0.96058 c 0.96482,0.52831 1.81375,0.96326 1.88651,0.96654 0.0728,0.003 0.0912,-2.16698 0.0409,-4.8228 z m 3.20027,3.0153 c 0.40329,-0.33574 0.46302,-0.89784 0.46302,-4.35731 0,-2.18451 0.0788,-3.89308 0.17502,-3.79682 0.0963,0.0963 0.24509,1.8389 0.33073,3.87252 l 0.15571,3.6975 1.91822,-1.20376 1.91823,-1.20375 0.002,-2.69081 c 8e-4,-1.47995 0.0797,-3.69403 0.1751,-4.92018 l 0.17351,-2.22937 -1.43187,0.84762 c -0.78753,0.46619 -2.6485,1.52893 -4.13551,2.36166 l -2.70365,1.51404 -0.007,2.38125 c -0.004,1.30968 0.0693,3.53234 0.16244,4.93922 l 0.1694,2.55798 1.086,-0.69215 c 0.5973,-0.38069 1.29436,-0.86562 1.54902,-1.07764 z m 11.3372,-0.73794 c 1.52297,-0.94003 1.56221,-0.99353 1.60097,-2.18281 l 0.0397,-1.21916 0.1587,1.11067 0.1587,1.11067 1.21055,-0.88127 1.21055,-0.88126 0.3108,-2.52905 c 0.17095,-1.39098 0.31081,-2.77688 0.31081,-3.07978 0,-0.52886 -0.0289,-0.53362 -0.72761,-0.11984 -0.68355,0.4048 -0.69556,0.40407 -0.19844,-0.012 0.29105,-0.24359 0.67433,-0.52672 0.85174,-0.62917 0.19264,-0.11125 0.65303,-2.47512 1.14302,-5.86887 0.45125,-3.12542 1.20481,-7.79595 1.67459,-10.37894 0.52838,-2.90522 0.74836,-4.69557 0.57677,-4.6943 -0.15255,0.001 -3.37763,1.53328 -7.16684,3.40479 l -6.88948,3.40273 0.10543,1.10552 c 0.058,0.60804 0.18169,1.06787 0.27489,1.02185 3.73224,-1.84267 4.27186,-2.19896 4.30654,-2.8434 0.0327,-0.60771 0.0465,-0.61553 0.14933,-0.0847 0.11103,0.57317 0.15817,0.56268 2.34522,-0.52199 1.69533,-0.8408 2.23289,-1.23586 2.23597,-1.64327 0.003,-0.42641 0.0536,-0.45808 0.24564,-0.15451 0.19693,0.31126 0.37956,0.32425 0.98813,0.0703 0.60263,-0.25146 0.65287,-0.24856 0.26062,0.0151 -0.26727,0.1796 -0.64369,0.44562 -0.83649,0.59114 -0.40278,0.30401 -1.22361,7.80521 -0.8541,7.80521 0.12482,0 0.487,-0.12563 0.80486,-0.27918 0.56861,-0.27469 0.5694,-0.27227 0.0487,0.15041 -0.29104,0.23627 -0.66534,0.51073 -0.83177,0.60991 -0.18092,0.10781 -0.4222,1.723 -0.60001,4.01677 -0.16358,2.11006 -0.36712,4.29371 -0.4523,4.85257 -0.15154,0.99415 -0.14144,1.00949 0.46772,0.70984 0.61642,-0.30321 0.61613,-0.30104 -0.0289,0.21807 -0.55458,0.44629 -0.67232,0.81315 -0.79119,2.46515 l -0.13965,1.94083 -0.13486,-1.78192 -0.13485,-1.78192 -1.65365,1.08853 c -1.58382,1.04258 -1.65373,1.13458 -1.65553,2.1788 -0.001,0.59965 -0.0778,1.89393 -0.17055,2.8762 -0.0928,0.98227 -0.0801,1.78594 0.0281,1.78594 0.10825,0 0.89937,-0.43364 1.75805,-0.96365 z m -18.81168,-1.37606 c 0,-0.85028 -0.0769,-2.97642 -0.17093,-4.72476 l -0.17092,-3.1788 -1.71235,-0.8444 c -0.94179,-0.46442 -1.77203,-0.78471 -1.84499,-0.71175 -0.073,0.073 0.001,2.01353 0.1643,4.31239 0.16332,2.29886 0.29658,4.43052 0.29613,4.73703 -5.3e-4,0.42185 0.36892,0.72606 1.52053,1.2517 0.83674,0.38193 1.61065,0.6967 1.71979,0.69949 0.10914,0.003 0.19844,-0.69062 0.19844,-1.5409 z m -4.14131,-5.00248 c -0.0878,-2.58299 -0.23367,-4.77259 -0.32423,-4.86578 -0.0906,-0.0932 -1.10435,-0.59929 -2.25286,-1.12467 l -2.08818,-0.95523 0.17297,2.97675 c 0.0951,1.63721 0.24485,3.88019 0.33268,4.98439 l 0.1597,2.00764 1.8878,0.82579 c 1.03829,0.45419 1.97418,0.83067 2.07975,0.83663 0.10557,0.006 0.12014,-2.10252 0.0324,-4.68552 z m 19.24237,2.45274 1.83227,-1.18529 v -3.00923 c 0,-1.65508 0.0765,-3.74108 0.16998,-4.63555 0.10984,-1.05085 0.0734,-1.62631 -0.10295,-1.62631 -0.15011,0 -1.08981,0.47706 -2.08821,1.06015 l -1.81528,1.06014 -0.13229,4.76109 c -0.0728,2.6186 -0.0341,4.76091 0.086,4.76069 0.12004,-2.3e-4 1.04278,-0.53378 2.05052,-1.18569 z m -23.92269,-3.24649 c -0.0946,-1.85539 -0.17254,-4.03504 -0.17313,-4.84367 l -0.001,-1.47024 -1.84735,-0.89369 c -1.016045,-0.49153 -1.896372,-0.84196 -1.956284,-0.77872 -0.05991,0.0632 0.07927,2.34035 0.30929,5.06025 l 0.418219,4.94528 1.471919,0.67205 c 0.809556,0.36963 1.579586,0.67433 1.711186,0.67712 0.13919,0.003 0.16731,-1.40592 0.0672,-3.36838 z m 27.88224,0.79375 c 0.8954,-0.5569 1.64272,-1.22433 1.70346,-1.52135 0.20838,-1.01889 0.99957,-9.14851 0.90001,-9.24766 -0.0553,-0.0551 -1.02328,0.45461 -2.15106,1.13262 l -2.05052,1.23275 v 3.47036 c 0,1.9087 -0.0757,4.02276 -0.16826,4.69792 -0.0925,0.67515 -0.0919,1.22755 10e-4,1.22755 0.0933,0 0.88755,-0.44648 1.76493,-0.99219 z m -14.78056,-3.175 0.0467,-1.78593 0.15172,1.77584 0.15172,1.77585 1.78593,-1.22986 1.78594,-1.22984 v -3.65485 c 0,-2.01017 -0.0723,-3.65485 -0.16065,-3.65485 -0.0884,0 -0.98053,0.44648 -1.9826,0.99219 l -1.82196,0.99218 -0.0495,1.32292 -0.0495,1.32292 -0.0996,-1.27031 -0.0996,-1.27031 -2.00996,-0.91597 c -1.10548,-0.50378 -2.0262,-0.88464 -2.04605,-0.84636 -0.0198,0.0383 0.01,1.77042 0.0662,3.84917 l 0.1023,3.77957 1.76036,0.90378 c 0.96819,0.49708 1.90918,0.90963 2.09108,0.91679 0.22881,0.009 0.34513,-0.53736 0.37745,-1.77293 z m -25.470204,-1.32291 c -0.01291,-0.69123 -0.161747,-2.91217 -0.330729,-4.93543 l -0.307239,-3.67866 -2.082181,-0.88801 -2.082181,-0.88802 0.16736,2.5823 c 0.09205,1.42026 0.239088,3.63787 0.326755,4.92802 l 0.159396,2.34573 1.887717,0.88592 c 1.038246,0.48725 1.977014,0.89019 2.086155,0.89541 0.10914,0.005 0.187867,-0.55604 0.174947,-1.24726 z m 20.832894,-1.42971 c -0.0945,-1.33204 -0.17191,-3.05645 -0.17191,-3.832 v -1.41011 l -1.25677,-0.63165 c -2.49799,-1.25548 -2.41322,-1.29606 -2.5149,1.20369 l -0.0894,2.19717 -0.0539,-2.31215 -0.0539,-2.31215 -2.11079,-1.06128 c -1.16094,-0.58371 -2.22383,-1.06129 -2.36198,-1.06129 -0.15053,0 -0.21427,1.40491 -0.15907,3.50573 0.10148,3.86164 -0.0134,3.47338 -0.27693,-0.93588 l -0.17057,-2.8541 -1.819349,-0.91621 c -1.000641,-0.50391 -1.892009,-0.91621 -1.980819,-0.91621 -0.08881,0 -0.09178,0.89297 -0.0066,1.98438 0.08518,1.0914 0.225737,2.88995 0.312357,3.99677 l 0.157493,2.01239 1.688782,0.76573 c 0.928836,0.42115 1.860066,0.76573 2.069416,0.76573 0.20935,0 0.42032,0.0947 0.46883,0.21043 0.0731,0.17444 4.05571,2.17082 4.33059,2.17082 0.0475,0 0.13802,-0.26789 0.20109,-0.59531 0.10633,-0.55206 0.11728,-0.54656 0.15069,0.0758 0.0292,0.5445 0.34801,0.82851 1.68968,1.50548 0.90951,0.4589 1.76077,0.84152 1.89171,0.85025 0.1365,0.009 0.16472,-1.01728 0.0661,-2.40601 z m 11.5359,0.31844 1.52136,-0.85748 0.0477,-1.3638 0.0477,-1.36381 0.0993,1.26251 0.0993,1.2625 2.06262,-1.0731 2.06263,-1.07309 0.17024,-2.57066 c 0.0936,-1.41386 0.17084,-3.12955 0.1716,-3.81264 l 0.001,-1.24198 -2.05052,1.15537 -2.05052,1.15537 -0.15171,1.8064 -0.15172,1.80641 -0.0467,-1.65365 c -0.0257,-0.9095 -0.13602,-1.64973 -0.24516,-1.64495 -0.10914,0.005 -1.09141,0.51582 -2.18281,1.13563 l -1.98438,1.12693 -0.0736,3.7945 -0.0736,3.79449 0.60279,-0.39374 c 0.33154,-0.21656 1.2874,-0.7796 2.12415,-1.25121 z m -37.036022,-1.66686 c -0.04279,-1.05502 -0.147617,-3.22791 -0.232937,-4.82864 l -0.15513,-2.91042 -1.733688,-0.79375 c -0.953526,-0.43656 -1.826273,-0.83057 -1.939435,-0.87558 -0.113162,-0.045 -0.256029,0.25265 -0.317484,0.66146 l -0.111739,0.74329 -0.03964,-0.80093 c -0.0361,-0.72933 -0.239268,-0.89994 -2.272574,-1.90836 l -2.23293,-1.10742 -0.105976,0.85002 -0.105977,0.85002 -0.04234,-0.93725 c -0.04102,-0.90783 -0.110876,-0.96809 -2.225156,-1.91919 -1.200543,-0.54007 -2.272113,-0.98151 -2.381253,-0.98098 -0.33554,0.002 -0.22639,1.25153 0.5042,5.77367 l 0.70264,4.34909 1.978077,0.90145 c 1.087942,0.49579 2.036733,0.84278 2.108424,0.77109 0.07169,-0.0717 -0.0039,-1.41529 -0.167899,-2.98578 -0.164034,-1.57049 -0.282472,-3.33168 -0.263194,-3.91377 0.02265,-0.68395 0.113239,-0.35636 0.25608,0.92605 0.121565,1.0914 0.357936,2.97647 0.525269,4.18902 l 0.304242,2.20466 1.887802,0.85799 1.887799,0.85798 0.15277,-1.60743 0.152771,-1.60743 0.04567,1.64999 0.04567,1.65 1.785937,0.91668 c 0.982266,0.50417 1.849361,0.92253 1.926879,0.92969 0.07752,0.007 0.105926,-0.85019 0.06313,-1.90522 z m -4.22583,-5.22552 c 0,-0.80036 0.0496,-1.12778 0.110223,-0.7276 0.06062,0.40018 0.06062,1.05502 0,1.45521 -0.06062,0.40018 -0.110223,0.0728 -0.110223,-0.72761 z m 49.931722,2.18281 c 1.54605,-0.83424 1.85779,-1.11854 1.95828,-1.78593 0.14382,-0.95517 0.60071,-6.84913 0.53882,-6.95092 -0.10061,-0.16547 -4.3989,2.39902 -4.48766,2.67748 -0.21184,0.66454 -0.27315,7.05156 -0.0677,7.05156 0.12073,0 1.04694,-0.44648 2.05826,-0.99219 z M 97.204859,163.6192 c -0.08691,-0.5457 -0.240038,-2.34725 -0.340286,-4.00345 l -0.182266,-3.01127 -1.876343,-0.85649 c -1.854645,-0.84659 -1.878333,-0.85001 -2.048407,-0.29603 -0.155199,0.50554 -0.174649,0.49309 -0.198437,-0.12695 -0.02053,-0.53537 -0.261057,-0.79325 -1.087406,-1.16588 -0.583565,-0.26315 -1.011349,-0.52814 -0.950629,-0.58886 0.06072,-0.0607 0.472741,0.077 0.915601,0.30598 1.027239,0.53121 1.037439,0.52966 1.173919,-0.17892 0.09866,-0.51225 0.119689,-0.49416 0.150693,0.12965 0.03112,0.62617 0.275416,0.83351 1.79242,1.52136 0.966012,0.43801 1.830634,0.79638 1.92138,0.79638 0.09075,0 0.104045,-0.66377 0.02955,-1.47505 l -0.135446,-1.47505 -11.509374,-5.21824 c -6.330156,-2.87003 -12.508595,-5.66219 -13.729859,-6.20479 l -2.22049,-0.98656 0.16175,1.36573 c 0.089,0.75115 0.19521,1.39334 0.23611,1.42709 0.0409,0.0337 1.17569,0.54671 2.52176,1.13991 l 2.447396,1.07855 0.03964,-0.71277 0.03964,-0.71278 0.112771,0.754 c 0.0981,0.65593 0.40791,0.89035 2.38198,1.80237 1.771859,0.8186 2.317464,0.97229 2.489369,0.70122 0.164444,-0.25931 0.221184,-0.2267 0.224211,0.12889 0.0059,0.69307 3.922,2.5439 4.258362,2.0126 0.189931,-0.30001 0.236286,-0.28266 0.239554,0.0897 0.0028,0.32267 0.900279,0.90698 2.980613,1.94059 3.373374,1.67607 4.105751,2.16049 1.935493,1.28021 -0.281659,-0.11424 -0.406723,0.10764 -0.48469,0.8599 l -0.105077,1.01387 -0.04448,-1.07958 -0.04448,-1.07957 -2.134714,-0.96004 -2.134714,-0.96004 0.128916,3.75941 c 0.08994,2.62275 0.06533,3.19942 -0.08138,1.90732 -0.115662,-1.01865 -0.225083,-2.72206 -0.24316,-3.78537 l -0.03286,-1.93328 -1.999032,-0.91099 c -1.099468,-0.50104 -2.026812,-0.91099 -2.060761,-0.91099 -0.03395,0 0.02482,0.86321 0.130591,1.91823 0.105778,1.05503 0.199681,2.78241 0.208679,3.83863 l 0.01635,1.92039 1.918229,0.92122 c 4.471209,2.14729 9.129897,4.3345 10.038616,4.71304 0.896927,0.37363 0.9862,0.37067 1.093788,-0.0362 0.08808,-0.3331 0.124764,-0.30559 0.147841,0.11088 0.02294,0.41379 0.482489,0.76458 1.816629,1.38664 0.982266,0.45801 1.890451,0.83382 2.018191,0.83516 0.127739,0.001 0.161145,-0.44407 0.07423,-0.98977 z m -4.340807,-6.01927 c 0.0029,-0.58208 0.05712,-0.78905 0.120406,-0.45993 0.06329,0.32911 0.06088,0.80536 -0.0053,1.05833 -0.06622,0.25296 -0.118004,-0.0163 -0.115067,-0.5984 z m -0.575,-5.31371 c 0.0127,-0.30823 0.07539,-0.37092 0.15985,-0.15986 0.07643,0.191 0.06703,0.4192 -0.02088,0.50712 -0.08792,0.0879 -0.150453,-0.0684 -0.138965,-0.34726 z m -4.233334,-0.79375 c 0.0127,-0.30823 0.07539,-0.37092 0.159851,-0.15986 0.07643,0.191 0.06703,0.4192 -0.02088,0.50712 -0.08792,0.0879 -0.150452,-0.0684 -0.138964,-0.34726 z m -4.497916,-3.175 c 0.0127,-0.30823 0.07539,-0.37092 0.159851,-0.15986 0.07643,0.191 0.06703,0.4192 -0.02088,0.50712 -0.08792,0.0879 -0.150453,-0.0684 -0.138964,-0.34726 z m -4.47703,-1.69775 c 0,-0.3638 0.06006,-0.51263 0.133453,-0.33073 0.0734,0.18191 0.0734,0.47956 0,0.66146 -0.0734,0.1819 -0.133453,0.0331 -0.133453,-0.33073 z m 35.412388,16.59617 v -1.39549 l -2.57969,-1.29869 c -3.81936,-1.92277 -10.74972,-5.15868 -10.84478,-5.06362 -0.0455,0.0455 -0.007,0.73029 0.0865,1.5218 l 0.16914,1.43911 2.0016,0.91339 c 1.10088,0.50235 2.09935,0.95306 2.21881,1.00157 0.11947,0.0485 0.23592,-0.42774 0.25878,-1.05834 l 0.0416,-1.14652 0.15687,1.2552 0.15687,1.25521 1.9033,0.91012 1.9033,0.91012 0.10275,-0.9747 0.10274,-0.9747 0.0445,1.06872 c 0.0443,1.06354 0.0544,1.07335 2.095,2.02497 1.12778,0.52594 2.08028,0.96775 2.11666,0.9818 0.0364,0.014 0.0661,-0.60242 0.0661,-1.36995 z m 2.40114,0.0424 c 1.61667,-0.96045 1.83643,-1.18609 1.86822,-1.91823 0.0271,-0.62287 0.0646,-0.68132 0.1507,-0.23443 0.0631,0.32742 0.19584,0.59531 0.29507,0.59531 0.0992,0 1.10298,-0.48342 2.23056,-1.07427 2.02843,-1.0629 2.05014,-1.08532 2.05014,-2.11667 0,-0.57331 -0.0609,-1.04239 -0.1354,-1.04239 -0.0745,0 -2.03901,0.9532 -4.36563,2.11822 l -4.23022,2.11823 v 1.32136 c 0,0.72674 0.0685,1.32136 0.15218,1.32136 0.0837,0 0.97667,-0.48982 1.98438,-1.08849 z m 5.76313,-6.0441 c 4.45918,-2.3222 9.44705,-4.84192 11.08416,-5.59939 1.63711,-0.75747 2.97657,-1.45737 2.97657,-1.55534 0,-0.098 -0.68461,-0.48075 -1.52136,-0.85061 -0.83674,-0.36987 -9.08182,-4.21382 -18.32239,-8.54211 -22.510282,-10.54384 -26.526421,-12.30611 -26.850406,-11.78189 -0.0763,0.12344 -0.0081,1.75249 0.151463,3.62009 0.159602,1.86761 0.368327,6.53404 0.463836,10.36986 l 0.173651,6.97422 7.408333,3.53041 c 4.074583,1.94172 9.372863,4.54325 11.773953,5.78117 2.40109,1.23792 4.40814,2.25639 4.46011,2.26326 0.052,0.007 3.74291,-1.88748 8.20208,-4.20967 z m -21.9226,-0.63293 v -1.41552 l -1.77155,-0.76729 c -0.974352,-0.42201 -1.867321,-0.80699 -1.984375,-0.85549 -0.256503,-0.1063 -0.276575,0.89392 -0.04152,2.06918 0.146201,0.731 0.407892,0.96843 1.785937,1.62036 0.88805,0.42012 1.703938,0.76395 1.813078,0.76407 0.10914,1.1e-4 0.19843,-0.63678 0.19843,-1.41531 z m -20.928833,-1.03188 c -0.01471,-0.47294 -0.163539,-2.21486 -0.330729,-3.87092 l -0.30398,-3.01102 -2.182812,-1.0066 -2.182812,-1.00661 -0.03974,1.10721 -0.03974,1.10721 -0.158697,-1.18025 c -0.158424,-1.1782 -0.162602,-1.18219 -2.407658,-2.29765 -1.23693,-0.61458 -2.37657,-1.12526 -2.53255,-1.13486 -0.19758,-0.0122 -0.18041,0.7649 0.0566,2.56224 0.18712,1.41883 0.33164,2.93688 0.32117,3.37344 -0.0137,0.57129 -0.86114,-4.6765 -1.00649,-6.23274 -0.008,-0.081 -0.84506,-0.54949 -1.86111,-1.04101 -2.19451,-1.06164 -2.3173,-1.35217 -0.17015,-0.40259 0.82689,0.36568 1.60777,0.66488 1.73529,0.66488 0.27498,0 0.0467,-2.14404 -0.26453,-2.48446 -0.28278,-0.30931 -4.27436,-2.04305 -4.40437,-1.91303 -0.10179,0.10178 1.97952,11.56825 2.12645,11.71518 0.0439,0.0439 0.92852,0.4298 1.96582,0.85755 l 1.88599,0.77772 0.11186,-0.57388 c 0.099,-0.50781 0.116,-0.49689 0.14788,0.0949 0.0303,0.56238 0.32004,0.79053 1.82197,1.43468 1.653514,0.70916 3.673584,1.61586 6.283854,2.8205 1.408102,0.64984 1.459466,0.6369 1.428459,-0.35985 z m -4.68417,-2.71198 c 0.0054,-0.43656 0.06469,-0.58312 0.131773,-0.32569 0.06708,0.25743 0.06267,0.61462 -0.0098,0.79375 -0.07248,0.17913 -0.127363,-0.0315 -0.12197,-0.46806 z m -0.25478,-2.77812 c 0,-0.50933 0.05445,-0.71769 0.121002,-0.46302 0.06655,0.25466 0.06655,0.67138 0,0.92604 -0.06655,0.25466 -0.121002,0.0463 -0.121002,-0.46302 z m -9.525818,-26.44019 c 5.91438,-1.5226 9.046917,-2.68235 9.14976,-3.38749 0.143526,-0.98405 -0.71475,-1.17515 -2.71227,-0.60391 -0.9747,0.27873 -3.85916,0.99646 -6.40992,1.59494 -5.55765,1.30398 -6.10978,1.48959 -5.68747,1.9119 0.16922,0.16921 0.30767,0.58151 0.30767,0.91621 0,0.84841 0.55334,0.80379 5.35223,-0.43165 z m 49.159671,-5.64054 c 0.004,-0.1819 1.48297,-3.30729 3.28603,-6.94531 l 3.27829,-6.61459 -0.97093,-1.85208 c -1.1211,-2.13856 -4.85949,-6.086698 -6.48318,-6.846948 -1.18888,-0.55666 -2.0599,-0.32345 -3.16311,0.8469 -1.77774,1.88595 -1.64841,10.687518 0.23458,15.964808 1.17831,3.30236 3.7816,7.0162 3.81832,5.44722 z m 2.83653,84.80599 c 0.47294,-0.0587 1.24685,-0.0587 1.71979,0 0.47294,0.0587 0.086,0.10672 -0.8599,0.10672 -0.94588,0 -1.33283,-0.048 -0.85989,-0.10672 z m -0.79213,-1.47418 c -0.70828,-0.31103 -0.56677,-0.41696 5.80707,-4.34721 l 6.53304,-4.02841 0.80752,0.62274 c 0.44413,0.34251 0.80752,0.78562 0.80752,0.98469 0,0.4525 -6.17035,4.62228 -8.95027,6.04838 -2.20391,1.13061 -3.60914,1.33271 -5.00488,0.71981 z m 4.41784,-0.77401 c 0.58885,-0.29883 1.99946,-1.1377 3.13469,-1.86415 1.99416,-1.2761 2.05805,-1.34876 1.88732,-2.14655 -0.0972,-0.45416 -0.21606,-0.86907 -0.26413,-0.92201 -0.1011,-0.11135 -5.63917,3.03275 -7.78828,4.4216 l -1.45521,0.94042 0.79375,0.18803 c 1.08013,0.25588 2.40906,0.0337 3.69186,-0.61734 z m 6.94078,-4.32219 c 0.63477,-0.372 1.07915,-0.79767 0.98752,-0.94594 -0.10053,-0.16266 -0.3984,-0.0518 -0.75106,0.27949 -0.76671,0.72029 -0.94722,0.69269 -0.94722,-0.14479 0,-0.58676 -0.0613,-0.64302 -0.39688,-0.36448 -0.38705,0.32123 -0.57029,1.85208 -0.22168,1.85208 0.0964,0 0.69455,-0.30436 1.32932,-0.67636 z m 0.46822,-1.85654 c 0.43581,-0.66513 0.43346,-0.67406 -0.10186,-0.38757 -0.30138,0.16129 -0.54796,0.46766 -0.54796,0.68082 0,0.54835 0.13969,0.48531 0.64982,-0.29325 z m 1.73143,0.17996 c 0,-0.12995 -0.17859,-0.30481 -0.39687,-0.38857 -0.4033,-0.15476 -0.54187,0.12708 -0.22049,0.44846 0.25286,0.25286 0.61736,0.2175 0.61736,-0.0599 z m 16.16463,-0.506 c -1.75805,-0.54089 -1.18373,-1.79559 1.23636,-2.70107 1.90449,-0.71255 2.08963,-0.50111 0.22417,0.25602 -0.79412,0.32231 -1.63484,0.79706 -1.86826,1.05499 -0.37855,0.41829 -0.38103,0.50497 -0.0229,0.80219 0.29583,0.24552 1.32479,0.30092 3.90928,0.21049 1.92927,-0.0675 3.70978,-0.21068 3.95669,-0.31818 0.28038,-0.12208 0.4888,-0.58495 0.55512,-1.23286 l 0.10619,-1.0374 -0.0259,1.12645 c -0.0247,1.07105 -0.078,1.14387 -1.08429,1.48095 -1.20854,0.40483 -6.03139,0.65225 -6.98642,0.35842 z m -9.59343,-1.40974 c -1.54403,-0.56552 -0.96792,-1.76391 1.24622,-2.59233 2.22647,-0.83303 2.31312,-0.65447 0.17877,0.36839 -1.88577,0.90373 -2.35465,1.50318 -1.44793,1.85112 0.65165,0.25006 6.12071,0.19784 7.07778,-0.0676 0.57755,-0.16016 0.87977,-0.46767 1.10955,-1.12895 0.28737,-0.82703 0.31714,-0.84704 0.33073,-0.22224 0.0196,0.89928 -0.64437,1.46846 -2.10564,1.80516 -1.47842,0.34064 -5.44538,0.33222 -6.38948,-0.0136 z m -61.604523,-7.37298 c -0.218281,-0.14107 -0.277813,-0.25648 -0.132292,-0.25648 0.145521,0 0.443177,0.11541 0.661458,0.25648 0.218282,0.14106 0.277813,0.25648 0.132292,0.25648 -0.145521,0 -0.443177,-0.11542 -0.661458,-0.25648 z m -1.322917,-0.52917 c -0.218281,-0.14106 -0.277812,-0.25648 -0.132291,-0.25648 0.14552,0 0.443177,0.11542 0.661458,0.25648 0.218281,0.14107 0.277812,0.25648 0.132292,0.25648 -0.145521,0 -0.443178,-0.11541 -0.661459,-0.25648 z m -1.745731,-0.89822 c -0.0779,-0.20297 -0.10096,-0.82805 -0.0513,-1.38906 0.0837,-0.94503 0.0996,-0.91789 0.216074,0.36922 0.128317,1.41799 0.08673,1.67534 -0.164804,1.01984 z m 13.438978,-6.90699 c 0.0054,-0.43656 0.06469,-0.58312 0.131773,-0.32569 0.06708,0.25743 0.06267,0.61462 -0.0098,0.79375 -0.07248,0.17913 -0.127363,-0.0315 -0.12197,-0.46806 z m -12.75158,-3.30729 c -0.231749,-0.14977 -0.267343,-0.25817 -0.08554,-0.26053 0.17123,-0.002 0.355737,-0.21241 0.410017,-0.46707 0.06821,-0.32005 0.144573,-0.23835 0.247293,0.26458 0.159342,0.78018 0.05267,0.86656 -0.571765,0.46302 z m 8.533389,-0.92604 c 0.0029,-0.58208 0.05712,-0.78905 0.120406,-0.45994 0.06329,0.32912 0.06088,0.80537 -0.0053,1.05834 -0.06622,0.25296 -0.118004,-0.0163 -0.115067,-0.5984 z m -11.952087,-3.46163 c 0.0127,-0.30823 0.0754,-0.37092 0.15985,-0.15985 0.0764,0.19099 0.067,0.4192 -0.0209,0.50711 -0.0879,0.0879 -0.15045,-0.0684 -0.13896,-0.34726 z m -0.24369,-1.43316 c 0,-0.3638 0.0601,-0.51263 0.13345,-0.33073 0.0734,0.1819 0.0734,0.47956 0,0.66146 -0.0734,0.1819 -0.13345,0.0331 -0.13345,-0.33073 z m -0.26459,-1.32289 c 0,-0.3638 0.0601,-0.51263 0.13345,-0.33073 0.0734,0.1819 0.0734,0.47956 0,0.66146 -0.0734,0.1819 -0.13345,0.0331 -0.13345,-0.33073 z m -0.25478,-1.45521 c 0.005,-0.43656 0.0647,-0.58312 0.13178,-0.32569 0.0671,0.25743 0.0627,0.61462 -0.01,0.79375 -0.0725,0.17913 -0.12737,-0.0315 -0.12197,-0.46806 z m -0.27438,-1.4552 c 0,-0.36381 0.06,-0.51263 0.13345,-0.33073 0.0734,0.1819 0.0734,0.47955 0,0.66145 -0.0734,0.18191 -0.13345,0.0331 -0.13345,-0.33072 z m -0.4122,-1.87855 c -0.097,-0.60638 -0.12464,-1.15417 -0.0615,-1.21731 0.0631,-0.0631 0.19797,0.37749 0.29963,0.97919 0.10166,0.60169 0.12933,1.14949 0.0615,1.21732 -0.0678,0.0678 -0.20266,-0.37281 -0.29963,-0.9792 z m -0.37175,-2.2225 c 0.005,-0.43656 0.0647,-0.58312 0.13177,-0.32569 0.0671,0.25743 0.0627,0.61462 -0.01,0.79375 -0.0725,0.17913 -0.12736,-0.0315 -0.12197,-0.46806 z m -0.27439,-1.4552 c 0,-0.36381 0.06,-0.51263 0.13345,-0.33073 0.0734,0.1819 0.0734,0.47955 0,0.66146 -0.0734,0.1819 -0.13345,0.0331 -0.13345,-0.33073 z m -0.42662,-1.9964 c -0.10121,-0.67491 -0.1299,-1.28122 -0.0637,-1.34737 0.0661,-0.0661 0.20307,0.43193 0.30428,1.10683 0.10121,0.67491 0.12989,1.28122 0.0637,1.34737 -0.0661,0.0661 -0.20307,-0.43193 -0.30428,-1.10683 z m -4.20926,-23.06045 c -0.27729,-1.14642 -1.08454,-2.11672 -2.51662,-3.02491 -1.5622,-0.99072 -1.08091,-0.9745 0.65671,0.0221 1.43708,0.82425 2.33555,2.18236 2.15989,3.26483 -0.0797,0.49112 -0.12802,0.44891 -0.29998,-0.26205 z m 28.194348,-12.71242 c -2.128832,-3.15748 -6.7541,-11.59857 -5.472908,-9.98802 1.08558,1.36464 6.942674,11.50937 6.644981,11.50937 -0.08049,0 -0.607925,-0.68461 -1.172073,-1.52135 z m 15.060463,0.64084 c -0.0462,-1.09687 0.51454,-7.01611 0.78136,-8.24761 0.15449,-0.713 0.18984,0.0208 0.10835,2.24895 -0.11099,3.03477 -0.81466,7.77911 -0.88971,5.99866 z m -7.531863,-5.00734 c -1.81224,-8.47567 -3.962456,-22.041851 -3.197479,-20.173608 0.195694,0.47794 4.363392,24.546568 4.267123,24.642828 -0.05168,0.0517 -0.533019,-1.95947 -1.069644,-4.46922 z m -22.447202,3.06128 c 0.190995,-0.0764 0.419198,-0.067 0.507119,0.0209 0.08792,0.0879 -0.06835,0.15046 -0.347265,0.13897 -0.308227,-0.0127 -0.37092,-0.0754 -0.159854,-0.15985 z m 1.706894,-0.27371 c 0.402182,-0.0608 0.997495,-0.0592 1.322916,0.004 0.325422,0.0628 -0.0036,0.11256 -0.731242,0.11058 -0.727604,-0.002 -0.993857,-0.0534 -0.591674,-0.11419 z M 140.215,107.45889 c -0.47783,-0.29133 -0.93705,-0.70761 -1.02049,-0.92505 -0.19992,-0.52099 -0.59525,-0.49953 -1.24673,0.0677 -0.53089,0.4622 -0.53092,0.46177 -0.0208,-0.24162 0.28105,-0.38755 0.86198,-0.77624 1.29096,-0.86375 0.45234,-0.0923 1.31366,-0.71282 2.05052,-1.4773 0.69881,-0.725 1.27056,-1.25639 1.27056,-1.18086 0,0.34009 -2.30428,2.59118 -2.87422,2.80787 -0.6251,0.23766 -0.62729,0.25025 -0.13789,0.79103 2.52421,2.78922 5.58004,0.92147 5.68284,-3.47339 0.0153,-0.65485 0.12637,-1.48829 0.24677,-1.85209 0.30208,-0.9127 0.0136,2.75375 -0.32137,4.08506 -0.14426,0.5733 -0.65644,1.4365 -1.13817,1.91823 -1.04982,1.04982 -2.42008,1.17453 -3.78195,0.34421 z m -3.8879,-2.18031 c -0.46189,-0.40133 -0.72263,-0.94017 -0.8002,-1.65365 -0.0633,-0.58208 -0.0526,-0.8202 0.0238,-0.52916 0.37391,1.42523 0.79149,2.07526 1.54348,2.4027 0.4585,0.19964 0.61866,0.35924 0.36636,0.36507 -0.24655,0.006 -0.75658,-0.25754 -1.13341,-0.58496 z m 23.49553,-0.52917 c -1.4624,-2.99592 -4.65507,-6.135258 -7.22947,-7.108698 -1.74508,-0.65986 -4.63344,-0.59177 -6.04839,0.14258 -0.48897,0.25377 -0.81516,0.34187 -0.72487,0.19579 0.0903,-0.14608 0.69245,-0.46735 1.33815,-0.71395 1.74357,-0.66588 4.3546,-0.45204 6.36618,0.52138 1.98983,0.9629 4.99621,3.948758 6.08229,6.040768 l 0.79184,1.52527 0.15688,-1.26069 0.15686,-1.26068 0.0416,1.52136 c 0.0229,0.83674 -0.0538,1.52135 -0.17029,1.52135 -0.11653,0 -0.45886,-0.50601 -0.76075,-1.12448 z m 1.02419,-2.71198 c 0.005,-0.43656 0.0647,-0.58312 0.13177,-0.32569 0.0671,0.25743 0.0627,0.61462 -0.01,0.79375 -0.0725,0.17913 -0.12737,-0.0315 -0.12197,-0.46806 z m -25.16611,0.1853 c -0.0232,-0.38247 0.71106,-1.90509 0.91874,-1.90509 0.0728,0 -0.033,0.32742 -0.23507,0.72761 -0.20205,0.40018 -0.43384,0.90619 -0.51508,1.12448 -0.0992,0.26659 -0.15456,0.28399 -0.16859,0.053 z m 9.23953,-3.757168 c 0,-0.14552 0.12609,-0.26458 0.2802,-0.26458 0.15411,0 0.20661,0.11906 0.11667,0.26458 -0.0899,0.14552 -0.21602,0.26458 -0.28019,0.26458 -0.0642,0 -0.11668,-0.11906 -0.11668,-0.26458 z m -12.16678,-1.25677 c 0.002,-0.10914 0.11602,-0.37553 0.25287,-0.59198 0.19555,-0.30929 0.23927,-0.2668 0.20423,0.19844 -0.0395,0.52463 -0.4673,0.89292 -0.4571,0.39354 z m 1.31886,-0.57167 c 0.36381,-0.29758 0.78052,-0.54187 0.92604,-0.54288 0.28313,-0.002 -0.19532,0.36442 -1.05833,0.81044 -0.35147,0.18164 -0.30705,0.0918 0.13229,-0.26756 z m -26.72291,-0.12508 c 0,-0.20131 -0.23812,-0.42828 -0.52917,-0.50439 -0.54796,-0.1433 -0.71992,-0.83255 -0.27613,-1.10682 0.13916,-0.086 0.18134,-0.343181 0.0937,-0.571489 -0.18704,-0.487399 0.33442,-0.881096 1.17458,-0.886814 0.45753,-0.0031 0.59531,-0.157142 0.59531,-0.66551 0,-0.552928 0.12543,-0.661458 0.76444,-0.661458 0.42044,0 1.04552,0.247666 1.38906,0.550368 l 0.62463,0.550367 -0.65419,-0.418076 c -0.6551,-0.418664 -1.85936,-0.574411 -1.85936,-0.240472 0,0.09768 0.19705,0.395339 0.43789,0.661459 0.41265,0.455977 0.40122,0.484062 -0.19844,0.487467 -0.86116,0.0049 -1.82694,0.278794 -1.82694,0.518138 0,0.107497 0.38695,0.319581 0.85989,0.4713 l 0.8599,0.27584 -0.79375,0.0311 c -1.05979,0.0415 -1.66841,0.41369 -1.05888,0.64759 0.24239,0.093 0.69885,0.1729 1.01437,0.17753 0.53068,0.008 0.53928,0.0345 0.11476,0.35689 -0.2524,0.19166 -0.38138,0.426 -0.28663,0.52075 0.0948,0.0948 0.0334,0.17228 -0.1364,0.17228 -0.16978,0 -0.30868,-0.16471 -0.30868,-0.36602 z m 23.69521,-0.75119 c -0.22653,-0.32342 -0.40722,-0.94849 -0.40152,-1.389058 l 0.0103,-0.801025 0.34598,0.793853 c 0.19029,0.43662 0.5415,0.95612 0.78048,1.15446 0.42553,0.35315 0.37415,0.82981 -0.0894,0.82981 -0.12868,0 -0.41931,-0.26461 -0.64584,-0.58804 z m -1.61338,-1.546227 c -0.0959,-0.155203 -0.11766,-0.338931 -0.0483,-0.408286 0.0694,-0.06936 0.1966,0.05763 0.28277,0.282186 0.17891,0.466224 0.0264,0.548232 -0.23447,0.1261 z m 3.22249,-1.702189 c -0.0838,-0.218281 -0.037,-0.396875 0.10398,-0.396875 0.14095,0 0.25628,0.178594 0.25628,0.396875 0,0.218281 -0.0468,0.396875 -0.10398,0.396875 -0.0572,0 -0.17252,-0.178594 -0.25628,-0.396875 z m 13.18174,-1.816859 c -1.78019,-0.828964 -2.63816,-1.920509 -3.31166,-4.213223 -0.68282,-2.324404 -1.56626,-3.906214 -2.65947,-4.761782 -0.72503,-0.567413 -0.78597,-0.712993 -0.51244,-1.224082 0.80564,-1.505352 3.17862,-2.032309 4.98357,-1.106677 2.34989,1.205094 2.76062,2.251712 2.81361,7.169498 0.0227,2.110052 0.13859,4.044818 0.25747,4.299479 0.28398,0.608348 0.0289,0.581853 -1.57108,-0.163213 z m -14.07322,-0.08629 c 0.25744,-0.06708 0.61462,-0.06267 0.79375,0.0098 0.17914,0.07247 -0.0315,0.127361 -0.46805,0.121969 -0.43656,-0.0054 -0.58313,-0.06469 -0.3257,-0.131773 z"
       id="path914" />
  </g>
</svg>
