<svg xmlns="https://www.w3.org/2000/svg" viewBox="0 0 512 512"><defs><style>.a{fill:#054663;}.b{fill:#fcc119;}.c{fill:#054664;}.d{fill:#c48654;}.e{fill:#ed9923;}.f{fill:#8c4414;}.g{fill:#ed9a25;}.h{fill:#044562;}.i{fill:#fefcf6;}.j{fill:#40d548;}.k{fill:#098349;}.l{fill:#c94e53;}.m{fill:#f57568;}.n{fill:#ca4e52;}</style></defs><path class="a" d="M205,142.1c-8.92-6.95-17.78-14-26.77-20.82-5.64-4.3-10.82-9.21-17.11-12.62-2.69-3.72-7-5.57-10.22-8.61-2-1.91-3.62-1.46-5.7,0-9.09,6.59-14.8,15.31-17.87,26.06a44.26,44.26,0,0,0,1.79,29.5c8.23,20.44,33.39,34.93,55,29.06,16.24-4.4,27.49-13.87,33.54-29.52.7-1.81.63-3.18-1.18-4.53C212.7,147.79,209.15,144.56,205,142.1Zm21.75,339.16a527.26,527.26,0,0,0,59.31-31.16,571.76,571.76,0,0,0,115.81-92.68c10.88-11.27,21.12-23.12,31.17-35.13,1.84-2.19,1.92-3.51-.64-5.48q-58.71-45-117.25-90.21-32.9-25.35-65.77-50.73c-2.87-2.22-4-2.48-6.33,1.19-15.11,24.08-36.17,38.65-65.44,40.25-34.27,1.88-64.39-18.83-76.84-47.47-11.7-26.9-8.79-53.16,7.94-77.6.32-.47-234-211.47-233.72-212,26.38-.05,16.75-16.84,43.13-17,1.78,0,273.46,227.94,274.75,228.94q43.69,33.66,87.44,67.27,55.92,43,111.84,86,44.19,34,88.27,68.19,30.07,23.2,60.19,46.33c2.06,1.58,3.89,3.47,5.82,5.21a6.4,6.4,0,0,1,.64.74h0c2.73,3.41,3.13,10.6,1.16,14.54h0c-.89,2.85-3,4.93-4.76,7.18a694.84,694.84,0,0,1-90.69,96.44c-10.91,9.53-22.25,18.52-33.3,27.87H366.7c.51-1.32,1.66-1.95,2.75-2.71a701.52,701.52,0,0,0,62.77-49.11A667,667,0,0,0,509.16,380c1.27-1.56,2.11-2.55-.05-4.14-12-8.89-23.45-18.57-35.79-27.05-3-3.21-6.74-5.5-10.12-8.24-1.89-1.53-2.78-1.44-4.47.61-11.72,14.28-23.89,28.16-36.82,41.38a597.32,597.32,0,0,1-45.14,41.88,602,602,0,0,1-49.55,37.12,601.43,601.43,0,0,1-76.52,43.69c-4.22,2-9.15,3-12.46,6.75H146.73c2.58-2.46,6.12-2.31,9.23-3.3,19.24-6.09,38.28-12.76,56.85-20.67C217.55,486,222.66,484.62,226.76,481.26Z"/><path class="b" d="M193.13,293.94c-43-1.12-79.81,36.2-79.83,79.67,0,44.66,37.56,79.71,80,79.68,44.1,0,79.35-36.32,79.69-79.58C273.35,329,235.52,293.36,193.13,293.94Zm167.29,39.47a16.2,16.2,0,0,0-16.24-16c-8.51.12-16,7.61-15.91,15.92a16.32,16.32,0,0,0,16.37,15.93A16.08,16.08,0,0,0,360.42,333.41Zm-190.51-90a16.06,16.06,0,0,0-16,16.14c.06,8.43,7.45,15.76,16,15.83,8.33.07,16-7.51,16.09-15.83A16.22,16.22,0,0,0,169.91,243.4Zm70.75,22c-.63,9.84,7.18,16.2,15.76,16,8.84-.17,15.4-6.55,15.43-15.62s-6.77-16.17-15.67-16.31C249.25,249.37,239.78,255.57,240.66,265.37ZM24.41,7.07q-1.8-18.73-3.59-37.48l117.06,95.5C128.4,69.28,117,76.71,109.52,90.7a11,11,0,0,1-.8,1.54c-16.73,24.44-19.64,50.7-7.94,77.6,12.45,28.64,42.57,49.35,76.84,47.47,29.27-1.6,50.33-16.17,65.44-40.25,2.31-3.67,3.46-3.41,6.33-1.19q32.82,25.45,65.77,50.73,58.59,45.14,117.25,90.21c2.56,2,2.48,3.29.64,5.48-10.05,12-20.29,23.86-31.17,35.13A571.76,571.76,0,0,1,286.07,450.1a527.26,527.26,0,0,1-59.31,31.16,6.55,6.55,0,0,0-3.81.7c-6.17,2.54-12.32,5.16-18.47,7.73-17.18,7.17-34.84,12.81-52.61,18.25-4.05,1.24-8.74.94-12.18,4.06H108.9c-2.66-5.16-1-11-2.44-16.31-2.13-7.57-2.18-15.45-3.64-23.14-1.65-8.68-2.67-17.48-4-26.23q-1.59-10.72-3.16-21.46c-1.28-8.87-2.51-17.75-3.81-26.62-1-7-2.56-14-3.12-21-.63-8-2.22-15.81-3.42-23.63-1.13-7.35-2.2-14.84-3.42-22.2-2.58-15.52-4.81-31.13-7.06-46.72-1.47-10.14-3.44-20.29-3.81-30.59,8-8.2,9.18-13.15,5.32-21.14-2-4.2-5.86-6.17-9.7-8.17-.54-8-1.2-16-2.28-23.84-1.86-13.5-3-27-4.71-40.55q-.59-4.6-1.08-9.23C57,136.51,56.06,126,56,124.89,55.16,116.13,49,89.27,24.41,7.07Z"/><path class="c" d="M55.22,512c-.24-9.95-2.23-19.7-3.37-29.54-1.15-10-2.38-20-3.82-30-2.76-19.05-4.77-38.2-8.11-57.17-2.22-12.64-3.82-25.4-5.69-38.1q-3.25-22.08-6.5-44.16c-2.65-18-5.15-36.11-8-54.12-3.25-20.64-4.84-41.46-7-62.22Q9.19,162.94,5.6,129.18C4.34,117.42-18-101.24-19.46-113c-.34-2.72.43-3.51,3.21-3.44,9.23.23,18.46.19,27.68.25,1.09,10.73,23.21,228.38,24.32,239.11,1.73,16.67,3.53,33.33,5.23,50,1.64,16.1,3.05,32.22,4.89,48.3.49,4.32-.08,8.77,1.41,13,1.06,5.34.46,10.88,1.92,16.18.15,1.45.25,2.9.47,4.34,1.78,11.66,3.65,23.3,5.37,35,2,13.56,3.76,27.15,5.85,40.7,2.62,17,5.54,33.91,8.19,50.89q4,25.92,7.79,51.89c2.31,16.16,4.23,32.37,6.66,48.51,1.51,10.09,2,20.31,4.25,30.3Z"/><path class="d" d="M473.32,348.81c12.34,8.48,23.77,18.16,35.79,27.05,2.16,1.59,1.32,2.58.05,4.14a667,667,0,0,1-76.94,80.18,701.52,701.52,0,0,1-62.77,49.11c-1.09.76-2.24,1.39-2.75,2.71H277.83c1.58-3.41,5.2-3.79,8-5.37a638.35,638.35,0,0,0,89.07-60.21c15.17-12.31,29.66-25.38,43.72-38.94,11.73-11.32,22.89-23.18,33.88-35.22C459.55,364.53,466,356.29,473.32,348.81Z"/><path class="e" d="M87.78,512c-2.21-10-2.74-20.21-4.25-30.3-2.43-16.14-4.35-32.35-6.66-48.51q-3.74-26-7.79-51.89c-2.65-17-5.57-33.91-8.19-50.89C58.8,316.86,57,303.27,55,289.71c-1.72-11.66-3.59-23.3-5.37-35-.22-1.44-.32-2.89-.47-4.34,6.53,5.69,13.6,8.19,21.86,3.69.37,10.3,2.34,20.45,3.81,30.59,2.25,15.59,4.48,31.2,7.06,46.72,1.22,7.36,2.29,14.85,3.42,22.2,1.2,7.82,2.79,15.67,3.42,23.63.56,7,2.08,14,3.12,21,1.3,8.87,2.53,17.75,3.81,26.62q1.56,10.74,3.16,21.46c1.29,8.75,2.31,17.55,4,26.23,1.46,7.69,1.51,15.57,3.64,23.14,1.49,5.33-.22,11.15,2.44,16.31Z"/><path class="f" d="M473.32,348.81c-7.31,7.48-13.77,15.72-20.81,23.45-11,12-22.15,23.9-33.88,35.22-14.06,13.56-28.55,26.63-43.72,38.94a638.35,638.35,0,0,1-89.07,60.21c-2.81,1.58-6.43,2-8,5.37H238.24c3.31-3.77,8.24-4.74,12.46-6.75a601.43,601.43,0,0,0,76.52-43.69,602,602,0,0,0,49.55-37.12,597.32,597.32,0,0,0,45.14-41.88c12.93-13.22,25.1-27.1,36.82-41.38,1.69-2.05,2.58-2.14,4.47-.61C466.58,343.31,470.32,345.6,473.32,348.81Z"/><path class="d" d="M226.76,481.26c-4.1,3.36-9.21,4.76-13.95,6.77-18.57,7.91-37.61,14.58-56.85,20.67-3.11,1-6.65.84-9.23,3.3h-7c3.44-3.12,8.13-2.82,12.18-4.06,17.77-5.44,35.43-11.08,52.61-18.25,6.15-2.57,12.3-5.19,18.47-7.73A6.55,6.55,0,0,1,226.76,481.26Z"/><path class="g" d="M47.28,234.23c-1.49-4.21-.92-8.66-1.41-13C44,205.17,42.62,189.05,41,173c-1.7-16.68-3.5-33.34-5.23-50-1.11-10.73-14-142.63-15.07-153.36,11.94,9.77,11.94,9.77,21.7,17.47C42.71-1.47,54.77,113.5,56,124.9c1.23,11.83,2.23,23.7,3.73,35.5,1.7,13.5,2.85,27,4.71,40.55,1.08,7.85,1.74,15.87,2.28,23.84a18.66,18.66,0,0,0-9.69.73C52.45,227.17,50,230.74,47.28,234.23Z"/><path class="h" d="M193.13,293.94c42.39-.58,80.22,35,79.86,79.77-.34,43.26-35.59,79.56-79.69,79.58-42.44,0-80-35-80-79.68C113.32,330.14,150.11,292.82,193.13,293.94ZM241,373.07c1.26-24.88-22.54-47.88-48.06-47.8-26.68.08-47.78,22.79-47.91,48.6s22.51,47.72,48.72,47.77C220.34,421.7,242.26,396.65,241,373.07Z"/><path class="i" d="M360.42,333.41a16.08,16.08,0,0,1-15.78,15.9,16.32,16.32,0,0,1-16.37-15.93c-.08-8.31,7.4-15.8,15.91-15.92A16.2,16.2,0,0,1,360.42,333.41Z"/><path class="i" d="M169.91,243.4A16.22,16.22,0,0,1,186,259.54c-.06,8.32-7.76,15.9-16.09,15.83-8.51-.07-15.9-7.4-16-15.83A16.06,16.06,0,0,1,169.91,243.4Z"/><path class="j" d="M240.66,265.37c-.88-9.8,8.59-16,15.52-15.89,8.9.14,15.7,7.12,15.67,16.31s-6.59,15.45-15.43,15.62C247.84,281.57,240,275.21,240.66,265.37Z"/><path class="k" d="M47.28,234.23c2.7-3.49,5.17-7.06,9.71-8.71a18.66,18.66,0,0,1,9.69-.73c3.84,2,7.66,4,9.7,8.17,3.86,8,2.66,12.94-5.32,21.14-8.26,4.5-15.33,2-21.86-3.69C47.74,245.11,48.34,239.57,47.28,234.23Z"/><path class="l" d="M205,142.1c4.14,2.46,7.69,5.69,11.52,8.57,1.81,1.35,1.88,2.72,1.18,4.53-6.05,15.65-17.3,25.12-33.54,29.52-21.65,5.87-46.81-8.62-55-29.06a44.26,44.26,0,0,1-1.79-29.5c3.07-10.75,8.78-19.47,17.87-26.06,2.08-1.51,3.66-2,5.7,0,3.25,3,7.53,4.89,10.22,8.61-2.29,1.28-4.8,2.27-6.81,3.88-17.63,14.09-15.82,41.3,2.78,52.3,14.47,8.56,31.37,5.59,41.79-7.64C202.47,152.65,203.81,147.46,205,142.1Z"/><path class="m" d="M205,142.1c-1.2,5.36-2.54,10.55-6.12,15.1-10.42,13.23-27.32,16.2-41.79,7.64-18.6-11-20.41-38.21-2.78-52.3,2-1.61,4.52-2.6,6.81-3.88,6.29,3.41,11.47,8.32,17.11,12.62C187.23,128.13,196.09,135.15,205,142.1Z"/><path class="n" d="M241,373.07c1.27,23.58-20.65,48.63-47.25,48.57-26.21-.05-48.85-22-48.72-47.77s21.23-48.52,47.91-48.6C218.45,325.19,242.25,348.19,241,373.07Zm-79.33.5c-1.17,17.45,15.18,31.52,31.18,31.57,18.38.06,32.24-14.88,32-31.47-.22-17.78-13.26-31.57-31.7-32C177.22,341.26,160.58,355.68,161.66,373.57Z"/><path class="m" d="M161.66,373.57c-1.08-17.89,15.56-32.31,31.52-31.92,18.44.45,31.48,14.24,31.7,32,.2,16.59-13.66,31.53-32,31.47C176.84,405.09,160.49,391,161.66,373.57Z"/></svg>